<?xml version="1.0" encoding="UTF-8" standalone="no"?>
<!DOCTYPE svg PUBLIC "-//W3C//DTD SVG 1.1//EN" "http://www.w3.org/Graphics/SVG/1.1/DTD/svg11.dtd">
<svg version="1.1" xmlns="http://www.w3.org/2000/svg" xmlns:xlink="http://www.w3.org/1999/xlink" preserveAspectRatio="xMidYMid meet" viewBox="0 0 640 640" width="640" height="640"><defs><path d="M320 595C168.23 595 45 471.78 45 320C45 168.22 168.23 45 320 45C471.78 45 595 168.22 595 320C595 471.78 471.78 595 320 595Z" id="agTuAgoKf"></path><path d="M320 595C168.22 595 45 471.78 45 320C45 168.22 168.22 45 320 45C471.77 45 595 168.22 595 320C595 471.78 471.77 595 320 595Z" id="buJbfXPKS"></path><path d="M352.8 448.4C352.8 461.61 342.09 472.32 328.87 472.32C320.54 472.32 319.46 472.32 311.12 472.32C297.91 472.32 287.2 461.61 287.2 448.4C287.2 435.97 287.2 404.9 287.2 355.19C237.48 355.19 206.41 355.19 193.98 355.19C180.77 355.19 170.07 344.48 170.07 331.26C170.07 322.93 170.07 321.83 170.07 313.5C170.07 300.3 180.77 289.59 193.98 289.59C206.41 289.59 237.48 289.59 287.2 289.59C287.2 239.87 287.2 208.79 287.2 196.37C287.2 183.15 297.91 172.46 311.12 172.46C319.46 172.46 320.54 172.46 328.87 172.46C342.09 172.46 352.8 183.15 352.8 196.37C352.8 208.79 352.8 239.87 352.8 289.59C402.51 289.59 433.58 289.59 446.02 289.59C459.22 289.59 469.93 300.3 469.93 313.5C469.93 321.83 469.93 322.93 469.93 331.26C469.93 344.48 459.22 355.19 446.02 355.19C433.58 355.19 402.51 355.19 352.8 355.19C352.8 404.9 352.8 435.97 352.8 448.4Z" id="d1txDt6oK"></path></defs><g><g><g><use xlink:href="#agTuAgoKf" opacity="1" fill="#67da1f" fill-opacity="1"></use></g><g><use xlink:href="#buJbfXPKS" opacity="1" fill="#000000" fill-opacity="0"></use><g><use xlink:href="#buJbfXPKS" opacity="1" fill-opacity="0" stroke="#ffffff" stroke-width="50" stroke-opacity="1"></use></g></g><g><use xlink:href="#d1txDt6oK" opacity="1" fill="#ffffff" fill-opacity="1"></use><g><use xlink:href="#d1txDt6oK" opacity="1" fill-opacity="0" stroke="#000000" stroke-width="1" stroke-opacity="0"></use></g></g></g></g></svg>