<?xml version="1.0" encoding="UTF-8" standalone="no"?>
<!DOCTYPE svg PUBLIC "-//W3C//DTD SVG 1.1//EN" "http://www.w3.org/Graphics/SVG/1.1/DTD/svg11.dtd">
<svg version="1.1" xmlns="http://www.w3.org/2000/svg" xmlns:xlink="http://www.w3.org/1999/xlink" preserveAspectRatio="xMidYMid meet" viewBox="0 0 640 640" width="640" height="640"><defs><path d="M307.57 530C289.06 530 274.06 515 274.06 496.5C274.06 479.09 274.06 435.57 274.06 365.94C204.42 365.94 160.9 365.94 143.49 365.94C124.99 365.94 110 350.94 110 332.43C110 320.76 110 319.22 110 307.55C110 289.06 124.99 274.06 143.49 274.06C160.9 274.06 204.42 274.06 274.06 274.06C274.06 204.42 274.06 160.89 274.06 143.49C274.06 124.98 289.06 110 307.57 110C319.25 110 320.76 110 332.43 110C350.95 110 365.95 124.98 365.95 143.49C365.95 160.89 365.95 204.42 365.95 274.06C435.57 274.06 479.09 274.06 496.52 274.06C515 274.06 530 289.06 530 307.55C530 319.22 530 320.76 530 332.43C530 350.94 515 365.94 496.52 365.94C479.09 365.94 435.57 365.94 365.95 365.94C365.95 435.57 365.95 479.09 365.95 496.5C365.95 515 350.95 530 332.43 530C320.76 530 319.25 530 307.57 530Z" id="a2ldLWhyAl"></path></defs><g><g><g><use xlink:href="#a2ldLWhyAl" opacity="1" fill="#ffffff" fill-opacity="1"></use><g><use xlink:href="#a2ldLWhyAl" opacity="1" fill-opacity="0" stroke="#000000" stroke-width="1" stroke-opacity="0"></use></g></g></g></g></svg>