<?xml version="1.0" encoding="UTF-8" standalone="no"?>
<!DOCTYPE svg PUBLIC "-//W3C//DTD SVG 1.1//EN" "http://www.w3.org/Graphics/SVG/1.1/DTD/svg11.dtd">
<svg version="1.1" xmlns="http://www.w3.org/2000/svg" xmlns:xlink="http://www.w3.org/1999/xlink" preserveAspectRatio="xMidYMid meet" viewBox="0 0 640 640" width="640" height="640"><defs><path d="M553.93 312.2C553.93 441.31 449.11 546.13 320 546.13C190.89 546.13 86.07 441.31 86.07 312.2C86.07 183.09 190.89 78.27 320 78.27C449.11 78.27 553.93 183.09 553.93 312.2Z" id="c6Uc6Hqoct"></path><path d="M347.9 342.13C347.9 384.42 347.9 410.85 347.9 421.42C347.9 432.66 338.79 441.77 327.55 441.77C320.46 441.77 319.54 441.77 312.45 441.77C301.21 441.77 292.1 432.66 292.1 421.42C292.1 410.85 292.1 384.42 292.1 342.13C249.81 342.13 223.38 342.13 212.8 342.13C201.57 342.13 192.46 333.02 192.46 321.78C192.46 314.69 192.46 313.76 192.46 306.67C192.46 295.44 201.57 286.33 212.8 286.33C223.38 286.33 249.81 286.33 292.1 286.33C292.1 244.04 292.1 217.6 292.1 207.03C292.1 195.79 301.21 186.69 312.45 186.69C319.54 186.69 320.46 186.69 327.55 186.69C338.79 186.69 347.9 195.79 347.9 207.03C347.9 217.6 347.9 244.04 347.9 286.33C390.19 286.33 416.62 286.33 427.2 286.33C438.43 286.33 447.54 295.44 447.54 306.67C447.54 313.76 447.54 314.69 447.54 321.78C447.54 333.02 438.43 342.13 427.2 342.13C416.62 342.13 390.19 342.13 347.9 342.13Z" id="d133l0ivQo"></path></defs><g><g><g><g><use xlink:href="#c6Uc6Hqoct" opacity="1" fill-opacity="0" stroke="#ffffff" stroke-width="50" stroke-opacity="1"></use></g></g><g><use xlink:href="#d133l0ivQo" opacity="1" fill="#ffffff" fill-opacity="1"></use></g></g></g></svg>