<?xml version="1.0" encoding="UTF-8" standalone="no"?>
<!DOCTYPE svg PUBLIC "-//W3C//DTD SVG 1.1//EN" "http://www.w3.org/Graphics/SVG/1.1/DTD/svg11.dtd">
<svg version="1.1" xmlns="http://www.w3.org/2000/svg" xmlns:xlink="http://www.w3.org/1999/xlink" preserveAspectRatio="xMidYMid meet" viewBox="0 0 640 640" width="640" height="640"><defs><path d="M252.47 111.87L252.74 111.95L253.01 112.04L253.27 112.14L253.53 112.27L253.79 112.41L254.04 112.57L254.28 112.75L254.52 112.95L254.75 113.17L452.42 310.84L452.76 311.18L453.07 311.54L453.37 311.9L453.65 312.27L453.91 312.66L454.16 313.05L454.39 313.44L454.6 313.85L454.79 314.26L454.97 314.67L455.13 315.09L455.28 315.52L455.41 315.95L455.52 316.39L455.61 316.82L455.69 317.26L455.75 317.7L455.79 318.15L455.81 318.59L455.82 319.04L455.81 319.48L455.79 319.93L455.75 320.37L455.69 320.81L455.61 321.25L455.52 321.69L455.41 322.13L455.28 322.56L455.13 322.98L454.97 323.4L454.79 323.82L454.6 324.23L454.39 324.63L454.16 325.03L453.91 325.42L453.65 325.8L453.37 326.18L453.07 326.54L452.76 326.9L452.42 327.24L252.83 526.83L252.6 527.05L252.37 527.25L252.12 527.42L251.87 527.58L251.62 527.72L251.36 527.85L251.1 527.95L250.83 528.04L250.56 528.11L250.29 528.17L250.02 528.21L249.75 528.23L249.48 528.24L249.21 528.23L248.94 528.2L248.67 528.16L248.41 528.11L248.15 528.04L247.89 527.96L247.64 527.86L247.4 527.75L247.16 527.63L246.92 527.49L246.7 527.34L246.48 527.18L246.28 527L246.08 526.82L245.89 526.62L245.72 526.41L245.55 526.19L245.4 525.96L245.27 525.72L245.14 525.47L245.03 525.21L244.94 524.94L244.86 524.66L244.8 524.37L244.75 524.07L244.72 523.77L244.72 523.45L244.9 481.91L407.53 319.28L246.35 158.09L246.54 116.55L246.55 116.23L246.58 115.92L246.62 115.62L246.69 115.33L246.77 115.05L246.87 114.78L246.98 114.52L247.11 114.26L247.25 114.02L247.4 113.79L247.57 113.57L247.75 113.36L247.94 113.16L248.14 112.97L248.35 112.8L248.57 112.64L248.79 112.49L249.03 112.35L249.27 112.23L249.52 112.12L249.77 112.02L250.03 111.94L250.29 111.87L250.56 111.82L250.83 111.78L251.1 111.75L251.37 111.75L251.65 111.75L251.92 111.78L252.2 111.82L252.2 111.82L252.47 111.87Z" id="axp88pOat"></path></defs><g><g><g><use xlink:href="#axp88pOat" opacity="1" fill="#ffffff" fill-opacity="1"></use></g></g></g></svg>