<?xml version="1.0" encoding="UTF-8" standalone="no"?>
<!DOCTYPE svg PUBLIC "-//W3C//DTD SVG 1.1//EN" "http://www.w3.org/Graphics/SVG/1.1/DTD/svg11.dtd">
<svg version="1.1" xmlns="http://www.w3.org/2000/svg" xmlns:xlink="http://www.w3.org/1999/xlink" preserveAspectRatio="xMidYMid meet" viewBox="0 0 640 640" width="640" height="640"><defs><path d="M392.24 111.87L392.51 111.94L392.77 112.02L393.02 112.12L393.27 112.23L393.51 112.35L393.75 112.49L393.97 112.64L394.19 112.8L394.4 112.97L394.6 113.16L394.79 113.36L394.97 113.57L395.14 113.79L395.29 114.02L395.43 114.26L395.56 114.52L395.67 114.78L395.77 115.05L395.85 115.33L395.91 115.62L395.96 115.92L395.99 116.23L396 116.55L396.19 158.09L235.01 319.28L397.64 481.91L397.82 523.45L397.81 523.77L397.79 524.07L397.74 524.37L397.68 524.66L397.6 524.94L397.51 525.21L397.4 525.47L397.27 525.72L397.14 525.96L396.98 526.19L396.82 526.41L396.64 526.62L396.46 526.82L396.26 527L396.05 527.18L395.84 527.34L395.61 527.49L395.38 527.63L395.14 527.75L394.9 527.86L394.65 527.96L394.39 528.04L394.13 528.11L393.87 528.16L393.6 528.2L393.33 528.23L393.06 528.24L392.79 528.23L392.52 528.21L392.24 528.17L391.97 528.11L391.71 528.04L391.44 527.95L391.18 527.85L390.92 527.72L390.66 527.58L390.42 527.42L390.17 527.25L389.94 527.05L389.71 526.83L190.11 327.24L189.78 326.9L189.47 326.54L189.17 326.18L188.89 325.8L188.63 325.42L188.38 325.03L188.15 324.63L187.94 324.23L187.74 323.82L187.57 323.4L187.4 322.98L187.26 322.56L187.13 322.13L187.02 321.69L186.93 321.25L186.85 320.81L186.79 320.37L186.75 319.93L186.73 319.48L186.72 319.04L186.73 318.59L186.75 318.15L186.79 317.7L186.85 317.26L186.93 316.82L187.02 316.39L187.13 315.95L187.26 315.52L187.4 315.09L187.57 314.67L187.74 314.26L187.94 313.85L188.15 313.44L188.38 313.05L188.63 312.66L188.89 312.27L189.17 311.9L189.47 311.54L189.78 311.18L190.11 310.84L387.78 113.17L388.02 112.95L388.25 112.75L388.5 112.57L388.75 112.41L389.01 112.27L389.27 112.14L389.53 112.04L389.8 111.95L390.07 111.87L390.34 111.82L390.62 111.78L390.89 111.75L391.16 111.75L391.44 111.75L391.71 111.78L391.98 111.82L391.98 111.82L392.24 111.87Z" id="iuguiGfLW"></path></defs><g><g><g><use xlink:href="#iuguiGfLW" opacity="1" fill="#ffffff" fill-opacity="1"></use></g></g></g></svg>