<?xml version="1.0" encoding="UTF-8" standalone="no"?>
<!DOCTYPE svg PUBLIC "-//W3C//DTD SVG 1.1//EN" "http://www.w3.org/Graphics/SVG/1.1/DTD/svg11.dtd">
<svg version="1.1" xmlns="http://www.w3.org/2000/svg" xmlns:xlink="http://www.w3.org/1999/xlink" preserveAspectRatio="xMidYMid meet" viewBox="0 0 640 640" width="640" height="640"><defs><path d="M522.64 296.55C522.62 364.49 426.92 282.42 384.99 355.73C352.71 412.17 443.82 431.43 389.75 475.47C335.69 519.51 170.17 466.09 151.13 370.78C132.09 275.48 199.86 181.47 302.38 160.98C404.9 140.5 522.65 228.61 522.64 296.55Z" id="adZUdoFKo"></path><path d="M316.91 217.66C316.91 235.23 302.64 249.49 285.07 249.49C267.5 249.49 253.24 235.23 253.24 217.66C253.24 200.09 267.5 185.82 285.07 185.82C302.64 185.82 316.91 200.09 316.91 217.66Z" id="b2CTZLSVLQ"></path><path d="M253.24 274.68C253.24 292.25 238.97 306.52 221.4 306.52C203.83 306.52 189.57 292.25 189.57 274.68C189.57 257.11 203.83 242.85 221.4 242.85C238.97 242.85 253.24 257.11 253.24 274.68Z" id="bIGFqKjsq"></path><path d="M289.75 418.26C289.75 435.83 275.49 450.1 257.92 450.1C240.35 450.1 226.08 435.83 226.08 418.26C226.08 400.69 240.35 386.43 257.92 386.43C275.49 386.43 289.75 400.69 289.75 418.26Z" id="b1H95YkB9U"></path><path d="M239.52 354.59C239.52 372.16 225.25 386.43 207.68 386.43C190.11 386.43 175.85 372.16 175.85 354.59C175.85 337.02 190.11 322.76 207.68 322.76C225.25 322.76 239.52 337.02 239.52 354.59Z" id="a1bQxkZ7yq"></path><path d="M396.98 211.01C396.98 228.58 382.72 242.85 365.15 242.85C347.58 242.85 333.31 228.58 333.31 211.01C333.31 193.44 347.58 179.18 365.15 179.18C382.72 179.18 396.98 193.44 396.98 211.01Z" id="a52Y78A5D3"></path></defs><g><g><g><use xlink:href="#adZUdoFKo" opacity="1" fill="#cecece" fill-opacity="1"></use></g><g><use xlink:href="#b2CTZLSVLQ" opacity="1" fill="#e75757" fill-opacity="1"></use></g><g><use xlink:href="#bIGFqKjsq" opacity="1" fill="#d8a84b" fill-opacity="1"></use></g><g><use xlink:href="#b1H95YkB9U" opacity="1" fill="#4573b6" fill-opacity="1"></use></g><g><use xlink:href="#a1bQxkZ7yq" opacity="1" fill="#31ab72" fill-opacity="1"></use></g><g><use xlink:href="#a52Y78A5D3" opacity="1" fill="#ed2d73" fill-opacity="1"></use></g></g></g></svg>