<?xml version="1.0" encoding="UTF-8" standalone="no"?>
<!DOCTYPE svg PUBLIC "-//W3C//DTD SVG 1.1//EN" "http://www.w3.org/Graphics/SVG/1.1/DTD/svg11.dtd">
<svg version="1.1" xmlns="http://www.w3.org/2000/svg" xmlns:xlink="http://www.w3.org/1999/xlink" preserveAspectRatio="xMidYMid meet" viewBox="0 0 640 640" width="640" height="640"><defs><path d="M397.14 372.07C348.91 456.41 485.05 485.18 404.26 550.99C323.48 616.79 76.16 536.97 47.71 394.56C19.26 252.16 120.53 111.7 273.71 81.08C426.89 50.48 602.84 182.13 602.82 283.65C602.79 385.16 459.8 262.53 397.14 372.07Z" id="f3ykc32vUD"></path><path d="M247.85 213.33C221.59 213.33 200.29 192.02 200.29 165.77C200.29 139.52 221.59 118.2 247.85 118.2C274.1 118.2 295.42 139.52 295.42 165.77C295.42 192.02 274.1 213.33 247.85 213.33Z" id="cjBn5amFo"></path><path d="M152.71 298.54C126.46 298.54 105.15 277.22 105.15 250.97C105.15 224.72 126.46 203.41 152.71 203.41C178.96 203.41 200.29 224.72 200.29 250.97C200.29 277.22 178.96 298.54 152.71 298.54Z" id="d19puGnrLM"></path><path d="M207.28 513.08C181.03 513.08 159.7 491.76 159.7 465.51C159.7 439.25 181.03 417.95 207.28 417.95C233.53 417.95 254.84 439.25 254.84 465.51C254.84 491.76 233.53 513.08 207.28 513.08Z" id="b32wUIhIjc"></path><path d="M132.21 417.95C105.96 417.95 84.65 396.62 84.65 370.37C84.65 344.12 105.96 322.81 132.21 322.81C158.46 322.81 179.79 344.12 179.79 370.37C179.79 396.62 158.46 417.95 132.21 417.95Z" id="f1rLvk8w9V"></path><path d="M367.5 203.41C341.25 203.41 319.93 182.09 319.93 155.83C319.93 129.58 341.25 108.27 367.5 108.27C393.75 108.27 415.06 129.58 415.06 155.83C415.06 182.09 393.75 203.41 367.5 203.41Z" id="d1403zrSvu"></path></defs><g><g><g><use xlink:href="#f3ykc32vUD" opacity="1" fill="#cecece" fill-opacity="1"></use><g><use xlink:href="#f3ykc32vUD" opacity="1" fill-opacity="0" stroke="#000000" stroke-width="1" stroke-opacity="0"></use></g></g><g><use xlink:href="#cjBn5amFo" opacity="1" fill="#e75757" fill-opacity="1"></use><g><use xlink:href="#cjBn5amFo" opacity="1" fill-opacity="0" stroke="#000000" stroke-width="1" stroke-opacity="0"></use></g></g><g><use xlink:href="#d19puGnrLM" opacity="1" fill="#d8a84b" fill-opacity="1"></use><g><use xlink:href="#d19puGnrLM" opacity="1" fill-opacity="0" stroke="#000000" stroke-width="1" stroke-opacity="0"></use></g></g><g><use xlink:href="#b32wUIhIjc" opacity="1" fill="#4573b6" fill-opacity="1"></use><g><use xlink:href="#b32wUIhIjc" opacity="1" fill-opacity="0" stroke="#000000" stroke-width="1" stroke-opacity="0"></use></g></g><g><use xlink:href="#f1rLvk8w9V" opacity="1" fill="#31ab72" fill-opacity="1"></use><g><use xlink:href="#f1rLvk8w9V" opacity="1" fill-opacity="0" stroke="#000000" stroke-width="1" stroke-opacity="0"></use></g></g><g><use xlink:href="#d1403zrSvu" opacity="1" fill="#ed2d73" fill-opacity="1"></use><g><use xlink:href="#d1403zrSvu" opacity="1" fill-opacity="0" stroke="#000000" stroke-width="1" stroke-opacity="0"></use></g></g></g></g></svg>