<?xml version="1.0" encoding="UTF-8" standalone="no"?>
<!DOCTYPE svg PUBLIC "-//W3C//DTD SVG 1.1//EN" "http://www.w3.org/Graphics/SVG/1.1/DTD/svg11.dtd">
<svg version="1.1" xmlns="http://www.w3.org/2000/svg" xmlns:xlink="http://www.w3.org/1999/xlink" preserveAspectRatio="xMidYMid meet" viewBox="0 0 640 640" width="640" height="640"><defs><path d="M47.71 394.56C19.26 252.16 120.53 111.7 273.71 81.08C348.77 66.09 434.13 81.82 496.74 122.1C561.91 164.03 602.83 231.87 602.82 283.65C602.79 385.16 459.8 262.53 397.14 372.07C348.91 456.41 485.05 485.18 404.26 550.99C323.48 616.79 76.16 536.97 47.71 394.56Z" id="b7lSR1BOsj"></path><path d="M314.47 123.22C336.75 123.22 354.84 141.31 354.84 163.59C354.84 185.87 336.75 203.95 314.47 203.95C292.19 203.95 274.11 185.87 274.11 163.59C274.11 141.31 292.19 123.22 314.47 123.22Z" id="b4upr3CQiq"></path><path d="M214.18 163.59C236.46 163.59 254.56 181.68 254.56 203.95C254.56 226.23 236.46 244.32 214.18 244.32C191.9 244.32 173.82 226.23 173.82 203.95C173.82 181.68 191.9 163.59 214.18 163.59Z" id="c4flo1auHw"></path><path d="M137.91 345.56C160.19 345.56 178.27 363.63 178.27 385.92C178.27 408.2 160.19 426.29 137.91 426.29C115.63 426.29 97.53 408.2 97.53 385.92C97.53 363.63 115.63 345.56 137.91 345.56Z" id="h9827UiaV"></path><path d="M149.02 244.19C171.3 244.19 189.4 262.28 189.4 284.55C189.4 306.83 171.3 324.93 149.02 324.93C126.74 324.93 108.65 306.83 108.65 284.55C108.65 262.28 126.74 244.19 149.02 244.19Z" id="a1693AYqlv"></path><path d="M415.09 135.12C437.37 135.12 455.45 153.21 455.45 175.49C455.45 197.77 437.37 215.87 415.09 215.87C392.81 215.87 374.72 197.77 374.72 175.49C374.72 153.21 392.81 135.12 415.09 135.12Z" id="a184n0Rzym"></path></defs><g><g><g><use xlink:href="#b7lSR1BOsj" opacity="1" fill="#000000" fill-opacity="0"></use><g><use xlink:href="#b7lSR1BOsj" opacity="1" fill-opacity="0" stroke="#ffffff" stroke-width="32" stroke-opacity="1"></use></g></g><g><use xlink:href="#b4upr3CQiq" opacity="1" fill="#e75757" fill-opacity="1"></use><g><use xlink:href="#b4upr3CQiq" opacity="1" fill-opacity="0" stroke="#000000" stroke-width="1" stroke-opacity="0"></use></g></g><g><use xlink:href="#c4flo1auHw" opacity="1" fill="#d8a84b" fill-opacity="1"></use><g><use xlink:href="#c4flo1auHw" opacity="1" fill-opacity="0" stroke="#000000" stroke-width="1" stroke-opacity="0"></use></g></g><g><use xlink:href="#h9827UiaV" opacity="1" fill="#4573b6" fill-opacity="1"></use><g><use xlink:href="#h9827UiaV" opacity="1" fill-opacity="0" stroke="#000000" stroke-width="1" stroke-opacity="0"></use></g></g><g><use xlink:href="#a1693AYqlv" opacity="1" fill="#31ab72" fill-opacity="1"></use><g><use xlink:href="#a1693AYqlv" opacity="1" fill-opacity="0" stroke="#000000" stroke-width="1" stroke-opacity="0"></use></g></g><g><use xlink:href="#a184n0Rzym" opacity="1" fill="#ed2d73" fill-opacity="1"></use><g><use xlink:href="#a184n0Rzym" opacity="1" fill-opacity="0" stroke="#000000" stroke-width="1" stroke-opacity="0"></use></g></g></g></g></svg>