<?xml version="1.0" encoding="UTF-8" standalone="no"?>
<!DOCTYPE svg PUBLIC "-//W3C//DTD SVG 1.1//EN" "http://www.w3.org/Graphics/SVG/1.1/DTD/svg11.dtd">
<svg version="1.1" xmlns="http://www.w3.org/2000/svg" xmlns:xlink="http://www.w3.org/1999/xlink" preserveAspectRatio="xMidYMid meet" viewBox="0 0 640 640" width="640" height="640"><defs><path d="M500.78 142.22C516.74 158.19 516.74 184.08 500.78 200.05C434.25 266.57 263.57 437.25 197.05 503.78C181.08 519.74 155.19 519.74 139.22 503.78C133.44 497.99 145.01 509.56 139.22 503.78C123.26 487.81 123.26 461.92 139.22 445.95C205.75 379.43 376.43 208.75 442.95 142.22C458.92 126.26 484.81 126.26 500.78 142.22C506.56 148.01 494.99 136.44 500.78 142.22Z" id="b37itXzUuD"></path><path d="M500.78 503.78C484.81 519.74 458.92 519.74 442.95 503.78C376.43 437.25 205.75 266.57 139.22 200.05C123.26 184.08 123.26 158.19 139.22 142.22C145.01 136.44 133.44 148.01 139.22 142.22C155.19 126.26 181.08 126.26 197.05 142.22C263.57 208.75 434.25 379.43 500.78 445.95C516.74 461.92 516.74 487.81 500.78 503.78C494.99 509.56 506.56 497.99 500.78 503.78Z" id="b1zDdSQawa"></path></defs><g><g><g><g><use xlink:href="#b37itXzUuD" opacity="1" fill="#ffffff" fill-opacity="1"></use></g><g><use xlink:href="#b1zDdSQawa" opacity="1" fill="#ffffff" fill-opacity="1"></use></g></g></g></g></svg>