<?xml version="1.0" encoding="UTF-8" standalone="no"?>
<!DOCTYPE svg PUBLIC "-//W3C//DTD SVG 1.1//EN" "http://www.w3.org/Graphics/SVG/1.1/DTD/svg11.dtd">
<svg version="1.1" xmlns="http://www.w3.org/2000/svg" xmlns:xlink="http://www.w3.org/1999/xlink" preserveAspectRatio="xMidYMid meet" viewBox="0 0 640 640" width="640" height="640"><defs><path d="M169.47 111.88L169.74 111.95L170.01 112.04L170.27 112.15L170.53 112.28L170.79 112.42L171.04 112.58L171.28 112.76L171.52 112.96L171.75 113.17L369.42 310.84L369.76 311.19L370.07 311.54L370.37 311.91L370.65 312.28L370.91 312.66L371.16 313.05L371.39 313.45L371.6 313.86L371.79 314.27L371.97 314.68L372.13 315.1L372.28 315.53L372.41 315.96L372.52 316.39L372.61 316.83L372.69 317.27L372.75 317.71L372.79 318.16L372.81 318.6L372.82 319.05L372.81 319.49L372.79 319.94L372.75 320.38L372.69 320.82L372.61 321.26L372.52 321.7L372.41 322.13L372.28 322.56L372.13 322.99L371.97 323.41L371.79 323.83L371.6 324.24L371.39 324.64L371.16 325.04L370.91 325.43L370.65 325.81L370.37 326.19L370.07 326.55L369.76 326.9L369.42 327.25L169.83 526.84L169.6 527.06L169.37 527.26L169.12 527.43L168.87 527.59L168.62 527.73L168.36 527.86L168.1 527.96L167.83 528.05L167.56 528.12L167.29 528.18L167.02 528.22L166.75 528.24L166.48 528.24L166.21 528.24L165.94 528.21L165.67 528.17L165.41 528.12L165.15 528.05L164.89 527.97L164.64 527.87L164.4 527.76L164.16 527.64L163.92 527.5L163.7 527.35L163.48 527.19L163.28 527.01L163.08 526.83L162.89 526.63L162.72 526.42L162.55 526.2L162.4 525.97L162.27 525.73L162.14 525.48L162.03 525.22L161.94 524.95L161.86 524.67L161.8 524.38L161.75 524.08L161.72 523.77L161.72 523.46L161.9 481.92L324.53 319.28L163.35 158.1L163.54 116.56L163.55 116.24L163.58 115.93L163.62 115.63L163.69 115.34L163.77 115.06L163.87 114.79L163.98 114.52L164.11 114.27L164.25 114.03L164.4 113.8L164.57 113.58L164.75 113.37L164.94 113.17L165.14 112.98L165.35 112.81L165.57 112.65L165.79 112.5L166.03 112.36L166.27 112.24L166.52 112.13L166.77 112.03L167.03 111.95L167.29 111.88L167.56 111.83L167.83 111.79L168.1 111.76L168.37 111.76L168.65 111.76L168.92 111.79L169.2 111.83L169.2 111.83L169.47 111.88Z" id="aXauZR1Ds"></path><path d="M293.32 111.88L293.59 111.95L293.85 112.04L294.12 112.15L294.38 112.28L294.64 112.42L294.89 112.58L295.13 112.76L295.37 112.96L295.6 113.17L493.27 310.84L493.6 311.19L493.92 311.54L494.21 311.91L494.49 312.28L494.76 312.66L495 313.05L495.23 313.45L495.44 313.86L495.64 314.27L495.82 314.68L495.98 315.1L496.12 315.53L496.25 315.96L496.36 316.39L496.46 316.83L496.53 317.27L496.59 317.71L496.63 318.16L496.66 318.6L496.67 319.05L496.66 319.49L496.63 319.94L496.59 320.38L496.53 320.82L496.46 321.26L496.36 321.7L496.25 322.13L496.12 322.56L495.98 322.99L495.82 323.41L495.64 323.83L495.44 324.24L495.23 324.64L495 325.04L494.76 325.43L494.49 325.81L494.21 326.19L493.92 326.55L493.6 326.9L493.27 327.25L293.68 526.84L293.45 527.06L293.21 527.26L292.97 527.43L292.72 527.59L292.47 527.73L292.21 527.86L291.94 527.96L291.68 528.05L291.41 528.12L291.14 528.18L290.87 528.22L290.6 528.24L290.33 528.24L290.05 528.24L289.79 528.21L289.52 528.17L289.25 528.12L288.99 528.05L288.74 527.97L288.49 527.87L288.24 527.76L288 527.64L287.77 527.5L287.55 527.35L287.33 527.19L287.12 527.01L286.93 526.83L286.74 526.63L286.56 526.42L286.4 526.2L286.25 525.97L286.11 525.73L285.99 525.48L285.88 525.22L285.78 524.95L285.7 524.67L285.64 524.38L285.6 524.08L285.57 523.77L285.56 523.46L285.75 481.92L448.38 319.28L287.2 158.1L287.38 116.56L287.39 116.24L287.42 115.93L287.47 115.63L287.54 115.34L287.62 115.06L287.71 114.79L287.83 114.52L287.95 114.27L288.1 114.03L288.25 113.8L288.42 113.58L288.59 113.37L288.78 113.17L288.98 112.98L289.19 112.81L289.41 112.65L289.64 112.5L289.87 112.36L290.12 112.24L290.36 112.13L290.62 112.03L290.88 111.95L291.14 111.88L291.41 111.83L291.68 111.79L291.95 111.76L292.22 111.76L292.49 111.76L292.77 111.79L293.04 111.83L293.04 111.83L293.32 111.88Z" id="eNNEWJQkB"></path></defs><g><g><g><use xlink:href="#aXauZR1Ds" opacity="1" fill="#ffffff" fill-opacity="1"></use></g><g><use xlink:href="#eNNEWJQkB" opacity="1" fill="#ffffff" fill-opacity="1"></use></g></g></g></svg>