<?xml version="1.0" encoding="UTF-8" standalone="no"?>
<!DOCTYPE svg PUBLIC "-//W3C//DTD SVG 1.1//EN" "http://www.w3.org/Graphics/SVG/1.1/DTD/svg11.dtd">
<svg version="1.1" xmlns="http://www.w3.org/2000/svg" xmlns:xlink="http://www.w3.org/1999/xlink" preserveAspectRatio="xMidYMid meet" viewBox="0 0 640 640" width="640" height="640"><defs><path d="M481.09 111.88L481.35 111.95L481.61 112.03L481.87 112.13L482.11 112.24L482.36 112.36L482.59 112.5L482.82 112.65L483.04 112.81L483.25 112.98L483.45 113.17L483.64 113.37L483.81 113.58L483.98 113.8L484.14 114.03L484.28 114.27L484.4 114.52L484.52 114.79L484.61 115.06L484.7 115.34L484.76 115.63L484.81 115.93L484.84 116.24L484.85 116.56L485.03 158.1L323.85 319.28L486.48 481.92L486.67 523.46L486.66 523.77L486.63 524.08L486.59 524.38L486.53 524.67L486.45 524.95L486.35 525.22L486.24 525.48L486.12 525.73L485.98 525.97L485.83 526.2L485.67 526.42L485.49 526.63L485.3 526.83L485.11 527.01L484.9 527.19L484.68 527.35L484.46 527.5L484.23 527.64L483.99 527.76L483.74 527.87L483.49 527.97L483.24 528.05L482.98 528.12L482.71 528.17L482.45 528.21L482.18 528.24L481.91 528.24L481.63 528.24L481.36 528.22L481.09 528.18L480.82 528.12L480.55 528.05L480.29 527.96L480.02 527.86L479.76 527.73L479.51 527.59L479.26 527.43L479.02 527.26L478.78 527.06L478.55 526.84L278.96 327.25L278.63 326.9L278.31 326.55L278.02 326.19L277.74 325.81L277.47 325.43L277.23 325.04L277 324.64L276.79 324.24L276.59 323.83L276.41 323.41L276.25 322.99L276.11 322.56L275.98 322.13L275.87 321.7L275.78 321.26L275.7 320.82L275.64 320.38L275.6 319.94L275.57 319.49L275.56 319.05L275.57 318.6L275.6 318.16L275.64 317.71L275.7 317.27L275.78 316.83L275.87 316.39L275.98 315.96L276.11 315.53L276.25 315.1L276.41 314.68L276.59 314.27L276.79 313.86L277 313.45L277.23 313.05L277.47 312.66L277.74 312.28L278.02 311.91L278.31 311.54L278.63 311.19L278.96 310.84L476.63 113.17L476.86 112.96L477.1 112.76L477.34 112.58L477.6 112.42L477.85 112.28L478.11 112.15L478.38 112.04L478.65 111.95L478.92 111.88L479.19 111.83L479.46 111.79L479.74 111.76L480.01 111.76L480.28 111.76L480.56 111.79L480.82 111.83L480.82 111.83L481.09 111.88Z" id="b3JN8PgWzJ"></path><path d="M357.24 111.88L357.51 111.95L357.77 112.03L358.02 112.13L358.27 112.24L358.51 112.36L358.75 112.5L358.97 112.65L359.19 112.81L359.4 112.98L359.6 113.17L359.79 113.37L359.97 113.58L360.14 113.8L360.29 114.03L360.43 114.27L360.56 114.52L360.67 114.79L360.77 115.06L360.85 115.34L360.91 115.63L360.96 115.93L360.99 116.24L361 116.56L361.19 158.1L200.01 319.28L362.64 481.92L362.82 523.46L362.81 523.77L362.79 524.08L362.74 524.38L362.68 524.67L362.6 524.95L362.51 525.22L362.4 525.48L362.27 525.73L362.14 525.97L361.98 526.2L361.82 526.42L361.64 526.63L361.46 526.83L361.26 527.01L361.05 527.19L360.84 527.35L360.61 527.5L360.38 527.64L360.14 527.76L359.9 527.87L359.65 527.97L359.39 528.05L359.13 528.12L358.87 528.17L358.6 528.21L358.33 528.24L358.06 528.24L357.79 528.24L357.52 528.22L357.24 528.18L356.97 528.12L356.71 528.05L356.44 527.96L356.18 527.86L355.92 527.73L355.66 527.59L355.42 527.43L355.17 527.26L354.94 527.06L354.71 526.84L155.11 327.25L154.78 326.9L154.47 326.55L154.17 326.19L153.89 325.81L153.63 325.43L153.38 325.04L153.15 324.64L152.94 324.24L152.74 323.83L152.57 323.41L152.4 322.99L152.26 322.56L152.13 322.13L152.02 321.7L151.93 321.26L151.85 320.82L151.79 320.38L151.75 319.94L151.73 319.49L151.72 319.05L151.73 318.6L151.75 318.16L151.79 317.71L151.85 317.27L151.93 316.83L152.02 316.39L152.13 315.96L152.26 315.53L152.4 315.1L152.57 314.68L152.74 314.27L152.94 313.86L153.15 313.45L153.38 313.05L153.63 312.66L153.89 312.28L154.17 311.91L154.47 311.54L154.78 311.19L155.11 310.84L352.78 113.17L353.02 112.96L353.25 112.76L353.5 112.58L353.75 112.42L354.01 112.28L354.27 112.15L354.53 112.04L354.8 111.95L355.07 111.88L355.34 111.83L355.62 111.79L355.89 111.76L356.16 111.76L356.44 111.76L356.71 111.79L356.98 111.83L356.98 111.83L357.24 111.88Z" id="c7JIMYuJ0y"></path></defs><g><g><g><use xlink:href="#b3JN8PgWzJ" opacity="1" fill="#ffffff" fill-opacity="1"></use></g><g><use xlink:href="#c7JIMYuJ0y" opacity="1" fill="#ffffff" fill-opacity="1"></use></g></g></g></svg>