<?xml version="1.0" encoding="UTF-8" standalone="no"?>
<!DOCTYPE svg PUBLIC "-//W3C//DTD SVG 1.1//EN" "http://www.w3.org/Graphics/SVG/1.1/DTD/svg11.dtd">
<svg version="1.1" xmlns="http://www.w3.org/2000/svg" xmlns:xlink="http://www.w3.org/1999/xlink" preserveAspectRatio="xMidYMid meet" viewBox="0 0 640 640" width="640" height="640"><defs><path d="M392.93 260.56C392.93 287.28 392.93 356.42 392.93 383.14C392.93 389.22 387.99 394.16 381.91 394.16C355.19 394.16 286.07 394.16 259.35 394.16C253.27 394.16 248.33 389.22 248.33 383.14C248.33 356.42 248.33 287.28 248.33 260.56C248.33 254.48 253.27 249.55 259.35 249.55C286.07 249.55 355.19 249.55 381.91 249.55C387.99 249.55 392.93 254.48 392.93 260.56Z" id="da1nQFthY"></path><path d="M564.19 260.56C564.19 287.28 564.19 356.42 564.19 383.14C564.19 389.22 559.27 394.16 553.17 394.16C526.46 394.16 457.33 394.16 430.61 394.16C424.53 394.16 419.59 389.22 419.59 383.14C419.59 356.42 419.59 287.28 419.59 260.56C419.59 254.48 424.53 249.55 430.61 249.55C457.33 249.55 526.46 249.55 553.17 249.55C559.27 249.55 564.19 254.48 564.19 260.56Z" id="d5kDjJsEO"></path><path d="M392.93 433.47C392.93 460.19 392.93 529.32 392.93 556.04C392.93 562.12 387.99 567.06 381.91 567.06C355.19 567.06 286.07 567.06 259.35 567.06C253.27 567.06 248.33 562.12 248.33 556.04C248.33 529.32 248.33 460.19 248.33 433.47C248.33 427.38 253.27 422.46 259.35 422.46C286.07 422.46 355.19 422.46 381.91 422.46C387.99 422.46 392.93 427.38 392.93 433.47Z" id="mUdkXutvN"></path><path d="M564.19 433.47C564.19 460.19 564.19 529.32 564.19 556.04C564.19 562.12 559.27 567.06 553.17 567.06C526.46 567.06 457.33 567.06 430.61 567.06C424.53 567.06 419.59 562.12 419.59 556.04C419.59 529.32 419.59 460.19 419.59 433.47C419.59 427.38 424.53 422.46 430.61 422.46C457.33 422.46 526.46 422.46 553.17 422.46C559.27 422.46 564.19 427.38 564.19 433.47Z" id="a3CqzGv6R0"></path><path d="M564.19 88.94C564.19 115.65 564.19 184.79 564.19 211.51C564.19 217.59 559.27 222.53 553.17 222.53C492.21 222.53 320.31 222.53 259.35 222.53C253.27 222.53 248.33 217.59 248.33 211.51C248.33 184.79 248.33 115.65 248.33 88.94C248.33 82.85 253.27 77.92 259.35 77.92C320.31 77.92 492.21 77.92 553.17 77.92C559.27 77.92 564.19 82.85 564.19 88.94Z" id="b2pC5Sp0rL"></path><path d="M218.41 260.56C218.41 321.87 218.41 494.75 218.41 556.04C218.41 562.12 213.47 567.06 207.39 567.06C180.67 567.06 111.54 567.06 84.83 567.06C78.73 567.06 73.81 562.12 73.81 556.04C73.81 494.75 73.81 321.87 73.81 260.56C73.81 254.48 78.73 249.55 84.83 249.55C111.54 249.55 180.67 249.55 207.39 249.55C213.47 249.55 218.41 254.48 218.41 260.56Z" id="c1s5JwaBOZ"></path><path d="M218.41 88.94C218.41 115.65 218.41 184.79 218.41 211.51C218.41 217.59 213.47 222.53 207.39 222.53C180.67 222.53 111.54 222.53 84.83 222.53C78.73 222.53 73.81 217.59 73.81 211.51C73.81 184.79 73.81 115.65 73.81 88.94C73.81 82.85 78.73 77.92 84.83 77.92C111.54 77.92 180.67 77.92 207.39 77.92C213.47 77.92 218.41 82.85 218.41 88.94Z" id="bmqelH3IZ"></path></defs><g><g><g><use xlink:href="#da1nQFthY" opacity="1" fill="#ffffff" fill-opacity="1"></use><g><use xlink:href="#da1nQFthY" opacity="1" fill-opacity="0" stroke="#000000" stroke-width="1" stroke-opacity="0"></use></g></g><g><use xlink:href="#d5kDjJsEO" opacity="1" fill="#ffffff" fill-opacity="1"></use><g><use xlink:href="#d5kDjJsEO" opacity="1" fill-opacity="0" stroke="#000000" stroke-width="1" stroke-opacity="0"></use></g></g><g><use xlink:href="#mUdkXutvN" opacity="1" fill="#ffffff" fill-opacity="1"></use><g><use xlink:href="#mUdkXutvN" opacity="1" fill-opacity="0" stroke="#000000" stroke-width="1" stroke-opacity="0"></use></g></g><g><use xlink:href="#a3CqzGv6R0" opacity="1" fill="#ffffff" fill-opacity="1"></use><g><use xlink:href="#a3CqzGv6R0" opacity="1" fill-opacity="0" stroke="#000000" stroke-width="1" stroke-opacity="0"></use></g></g><g><use xlink:href="#b2pC5Sp0rL" opacity="1" fill="#ffffff" fill-opacity="1"></use><g><use xlink:href="#b2pC5Sp0rL" opacity="1" fill-opacity="0" stroke="#000000" stroke-width="1" stroke-opacity="0"></use></g></g><g><use xlink:href="#c1s5JwaBOZ" opacity="1" fill="#ffffff" fill-opacity="1"></use><g><use xlink:href="#c1s5JwaBOZ" opacity="1" fill-opacity="0" stroke="#000000" stroke-width="1" stroke-opacity="0"></use></g></g><g><use xlink:href="#bmqelH3IZ" opacity="1" fill="#ffffff" fill-opacity="1"></use><g><use xlink:href="#bmqelH3IZ" opacity="1" fill-opacity="0" stroke="#000000" stroke-width="1" stroke-opacity="0"></use></g></g></g></g></svg>