<?xml version="1.0" encoding="UTF-8" standalone="no"?>
<!DOCTYPE svg PUBLIC "-//W3C//DTD SVG 1.1//EN" "http://www.w3.org/Graphics/SVG/1.1/DTD/svg11.dtd">
<svg version="1.1" xmlns="http://www.w3.org/2000/svg" xmlns:xlink="http://www.w3.org/1999/xlink" preserveAspectRatio="xMidYMid meet" viewBox="0 0 640 640" width="640" height="640"><defs><path d="M548.28 205.15C548.28 210.06 544.31 214.04 539.39 214.04C490.18 214.04 351.42 214.04 302.21 214.04C297.31 214.04 293.32 210.06 293.32 205.15C293.32 183.58 293.32 127.77 293.32 106.21C293.32 101.29 297.31 97.31 302.21 97.31C351.42 97.31 490.18 97.31 539.39 97.31C544.31 97.31 548.28 101.29 548.28 106.21C548.28 127.77 548.28 183.58 548.28 205.15Z" id="agdpmiwGn"></path><path d="M214.17 533.25C214.17 538.16 210.18 542.15 205.27 542.15C183.7 542.15 127.9 542.15 106.34 542.15C101.42 542.15 97.45 538.16 97.45 533.25C97.45 483.78 97.45 344.23 97.45 294.74C97.45 289.83 101.42 285.85 106.34 285.85C127.9 285.85 183.7 285.85 205.27 285.85C210.18 285.85 214.17 289.83 214.17 294.74C214.17 344.23 214.17 483.78 214.17 533.25Z" id="bZiaw28k5"></path><path d="M214.17 205.15C214.17 210.06 210.18 214.04 205.27 214.04C183.7 214.04 127.9 214.04 106.34 214.04C101.42 214.04 97.45 210.06 97.45 205.15C97.45 183.58 97.45 127.77 97.45 106.21C97.45 101.29 101.42 97.31 106.34 97.31C127.9 97.31 183.7 97.31 205.27 97.31C210.18 97.31 214.17 101.29 214.17 106.21C214.17 127.77 214.17 183.58 214.17 205.15Z" id="c6J1ECJx1"></path><path d="M548.28 522.62C548.28 533.39 544.31 542.15 539.39 542.15C490.18 542.15 351.42 542.15 302.21 542.15C297.31 542.15 293.32 533.39 293.32 522.62C293.32 475.26 293.32 352.72 293.32 305.38C293.32 294.59 297.31 285.85 302.21 285.85C351.42 285.85 490.18 285.85 539.39 285.85C544.31 285.85 548.28 294.59 548.28 305.38C548.28 352.72 548.28 475.26 548.28 522.62Z" id="hoXfEtIfM"></path></defs><g><g><g><use xlink:href="#agdpmiwGn" opacity="1" fill="#ffffff" fill-opacity="0"></use><g><use xlink:href="#agdpmiwGn" opacity="1" fill-opacity="0" stroke="#ffffff" stroke-width="32" stroke-opacity="1"></use></g></g><g><use xlink:href="#bZiaw28k5" opacity="1" fill="#ffffff" fill-opacity="0"></use><g><use xlink:href="#bZiaw28k5" opacity="1" fill-opacity="0" stroke="#ffffff" stroke-width="32" stroke-opacity="1"></use></g></g><g><use xlink:href="#c6J1ECJx1" opacity="1" fill="#ffffff" fill-opacity="0"></use><g><use xlink:href="#c6J1ECJx1" opacity="1" fill-opacity="0" stroke="#ffffff" stroke-width="32" stroke-opacity="1"></use></g></g><g><use xlink:href="#hoXfEtIfM" opacity="1" fill="#ffffff" fill-opacity="0"></use><g><use xlink:href="#hoXfEtIfM" opacity="1" fill-opacity="0" stroke="#ffffff" stroke-width="32" stroke-opacity="1"></use></g></g></g></g></svg>