<?xml version="1.0" encoding="UTF-8" standalone="no"?>
<!DOCTYPE svg PUBLIC "-//W3C//DTD SVG 1.1//EN" "http://www.w3.org/Graphics/SVG/1.1/DTD/svg11.dtd">
<svg version="1.1" xmlns="http://www.w3.org/2000/svg" xmlns:xlink="http://www.w3.org/1999/xlink" preserveAspectRatio="xMidYMid meet" viewBox="0 0 640 640" width="640" height="640"><defs><path d="M369.42 250.12C374.2 250.12 378.08 253.99 378.08 258.77C378.08 279.76 378.08 334.07 378.08 355.06C378.08 359.84 374.2 363.72 369.42 363.72C348.43 363.72 294.13 363.72 273.14 363.72C268.36 363.72 264.48 359.84 264.48 355.06C264.48 334.07 264.48 279.76 264.48 258.77C264.48 253.99 268.36 250.12 273.14 250.12C294.13 250.12 348.43 250.12 369.42 250.12Z" id="i1zv3N8WM7"></path><path d="M503.96 250.12C508.75 250.12 512.62 253.99 512.62 258.77C512.62 279.76 512.62 334.07 512.62 355.06C512.62 359.84 508.75 363.72 503.96 363.72C482.98 363.72 428.67 363.72 407.68 363.72C402.9 363.72 399.02 359.84 399.02 355.06C399.02 334.07 399.02 279.76 399.02 258.77C399.02 253.99 402.9 250.12 407.68 250.12C428.67 250.12 482.98 250.12 503.96 250.12Z" id="agvGRZcVe"></path><path d="M369.42 385.95C374.2 385.95 378.08 389.82 378.08 394.6C378.08 415.59 378.08 469.9 378.08 490.89C378.08 495.67 374.2 499.55 369.42 499.55C348.43 499.55 294.13 499.55 273.14 499.55C268.36 499.55 264.48 495.67 264.48 490.89C264.48 469.9 264.48 415.59 264.48 394.6C264.48 389.82 268.36 385.95 273.14 385.95C294.13 385.95 348.43 385.95 369.42 385.95Z" id="a1ejVYDxoe"></path><path d="M503.96 385.95C508.75 385.95 512.62 389.82 512.62 394.6C512.62 415.59 512.62 469.9 512.62 490.89C512.62 495.67 508.75 499.55 503.96 499.55C482.98 499.55 428.67 499.55 407.68 499.55C402.9 499.55 399.02 495.67 399.02 490.89C399.02 469.9 399.02 415.59 399.02 394.6C399.02 389.82 402.9 385.95 407.68 385.95C428.67 385.95 482.98 385.95 503.96 385.95Z" id="e22wY4vuP0"></path><path d="M503.96 115.29C508.75 115.29 512.62 119.16 512.62 123.94C512.62 144.93 512.62 199.24 512.62 220.23C512.62 225.01 508.75 228.89 503.96 228.89C456.07 228.89 321.03 228.89 273.14 228.89C268.36 228.89 264.48 225.01 264.48 220.23C264.48 199.24 264.48 144.93 264.48 123.94C264.48 119.16 268.36 115.29 273.14 115.29C321.03 115.29 456.07 115.29 503.96 115.29Z" id="c6oKmWd5r"></path><path d="M232.32 250.12C237.1 250.12 240.98 253.99 240.98 258.77C240.98 306.93 240.98 442.74 240.98 490.89C240.98 495.67 237.1 499.55 232.32 499.55C211.33 499.55 157.02 499.55 136.04 499.55C131.25 499.55 127.38 495.67 127.38 490.89C127.38 442.74 127.38 306.93 127.38 258.77C127.38 253.99 131.25 250.12 136.04 250.12C157.02 250.12 211.33 250.12 232.32 250.12Z" id="eb4pTZIu0"></path><path d="M232.32 115.29C237.1 115.29 240.98 119.16 240.98 123.94C240.98 144.93 240.98 199.24 240.98 220.23C240.98 225.01 237.1 228.89 232.32 228.89C211.33 228.89 157.02 228.89 136.04 228.89C131.25 228.89 127.38 225.01 127.38 220.23C127.38 199.24 127.38 144.93 127.38 123.94C127.38 119.16 131.25 115.29 136.04 115.29C157.02 115.29 211.33 115.29 232.32 115.29Z" id="c2IxQxj9ab"></path></defs><g><g><g><use xlink:href="#i1zv3N8WM7" opacity="1" fill="#ffffff" fill-opacity="1"></use></g><g><use xlink:href="#agvGRZcVe" opacity="1" fill="#ffffff" fill-opacity="1"></use></g><g><use xlink:href="#a1ejVYDxoe" opacity="1" fill="#ffffff" fill-opacity="1"></use></g><g><use xlink:href="#e22wY4vuP0" opacity="1" fill="#ffffff" fill-opacity="1"></use></g><g><use xlink:href="#c6oKmWd5r" opacity="1" fill="#e6e6e6" fill-opacity="1"></use></g><g><use xlink:href="#eb4pTZIu0" opacity="1" fill="#e6e6e6" fill-opacity="1"></use></g><g><use xlink:href="#c2IxQxj9ab" opacity="1" fill="#bfbfbf" fill-opacity="1"></use></g></g></g></svg>