<?xml version="1.0" encoding="UTF-8" standalone="no"?>
<!DOCTYPE svg PUBLIC "-//W3C//DTD SVG 1.1//EN" "http://www.w3.org/Graphics/SVG/1.1/DTD/svg11.dtd">
<svg version="1.1" xmlns="http://www.w3.org/2000/svg" xmlns:xlink="http://www.w3.org/1999/xlink" preserveAspectRatio="xMidYMid meet" viewBox="0 0 640 640" width="640" height="640"><defs><path d="M330.14 116.84L323.46 117.52L316.86 118.46L310.35 119.66L303.94 121.11L297.62 122.8L291.4 124.73L285.29 126.9L279.29 129.3L273.41 131.93L267.65 134.77L262.02 137.83L256.53 141.09L251.17 144.56L245.96 148.23L240.9 152.09L236 156.14L231.26 160.37L226.68 164.77L222.27 169.35L218.04 174.09L213.99 179L210.13 184.06L206.47 189.27L203 194.62L199.73 200.12L196.68 205.74L193.83 211.5L191.21 217.38L188.81 223.38L186.64 229.49L184.7 235.71L183.01 242.03L181.56 248.45L180.37 254.96L179.43 261.55L178.75 268.23L178.34 274.98L178.2 281.81L178.34 288.63L178.75 295.38L179.43 302.06L180.37 308.65L181.56 315.16L183.01 321.58L184.7 327.9L186.64 334.12L188.81 340.23L191.21 346.23L193.83 352.11L196.68 357.87L199.73 363.49L203 368.99L206.34 374.16L101.81 478.69L146.82 523.7L251.36 419.17L256.53 422.52L262.02 425.78L267.65 428.84L273.41 431.68L279.29 434.31L285.29 436.71L291.4 438.88L297.62 440.81L303.94 442.5L310.35 443.95L316.86 445.15L323.46 446.09L330.14 446.77L336.89 447.18L343.71 447.31L350.53 447.18L357.28 446.77L363.96 446.09L370.56 445.15L377.07 443.95L383.48 442.5L389.81 440.81L396.02 438.88L402.14 436.71L408.13 434.31L414.01 431.68L419.77 428.84L425.4 425.78L430.89 422.52L436.25 419.05L441.46 415.38L446.52 411.52L451.42 407.47L456.17 403.24L460.74 398.84L465.15 394.26L469.38 389.52L473.43 384.61L477.29 379.55L480.95 374.34L484.42 368.99L487.69 363.49L490.75 357.87L493.59 352.11L496.21 346.23L498.61 340.23L500.78 334.12L502.72 327.9L504.41 321.58L505.86 315.16L507.05 308.65L507.99 302.06L508.67 295.38L509.08 288.63L509.22 281.81L509.08 274.98L508.67 268.23L507.99 261.55L507.05 254.96L505.86 248.45L504.41 242.03L502.72 235.71L500.78 229.49L498.61 223.38L496.21 217.38L493.59 211.5L490.75 205.74L487.69 200.12L484.42 194.62L480.95 189.27L477.29 184.06L473.43 179L469.38 174.09L465.15 169.35L460.74 164.77L456.17 160.37L451.42 156.14L446.52 152.09L441.46 148.23L436.25 144.56L430.89 141.09L425.4 137.83L419.77 134.77L414.01 131.93L408.13 129.3L402.14 126.9L396.02 124.73L389.81 122.8L383.48 121.11L377.07 119.66L370.56 118.46L363.96 117.52L357.28 116.84L350.53 116.43L343.71 116.3L336.89 116.43L330.14 116.84ZM352.09 180.02L356.21 180.44L360.28 181.02L364.29 181.76L368.25 182.65L372.15 183.7L375.99 184.89L379.76 186.23L383.46 187.71L387.09 189.33L390.64 191.08L394.11 192.97L397.5 194.98L400.81 197.12L404.02 199.39L407.14 201.77L410.17 204.27L413.1 206.88L415.92 209.59L418.64 212.42L421.25 215.35L423.75 218.37L426.13 221.49L428.39 224.71L430.53 228.01L432.55 231.4L434.43 234.87L436.19 238.43L437.81 242.05L439.29 245.76L440.63 249.53L441.82 253.36L442.87 257.26L443.76 261.22L444.5 265.24L445.08 269.31L445.49 273.43L445.75 277.6L445.83 281.81L445.75 286.02L445.49 290.18L445.08 294.3L444.5 298.37L443.76 302.39L442.87 306.35L441.82 310.25L440.63 314.08L439.29 317.86L437.81 321.56L436.19 325.18L434.43 328.74L432.55 332.21L430.53 335.6L428.39 338.9L426.13 342.12L423.75 345.24L421.25 348.27L418.64 351.19L415.92 354.02L413.1 356.74L410.17 359.35L407.14 361.84L404.02 364.22L400.81 366.49L397.5 368.63L394.11 370.64L390.64 372.53L387.09 374.28L383.46 375.9L379.76 377.38L375.99 378.72L372.15 379.92L368.25 380.96L364.29 381.85L360.28 382.59L356.21 383.17L352.09 383.59L347.92 383.84L343.71 383.93L339.5 383.84L335.33 383.59L331.22 383.17L327.15 382.59L323.13 381.85L319.17 380.96L315.27 379.92L311.43 378.72L307.66 377.38L303.96 375.9L300.33 374.28L296.78 372.53L293.31 370.64L289.92 368.63L286.61 366.49L283.4 364.22L280.28 361.84L277.25 359.35L274.32 356.74L271.5 354.02L268.78 351.19L266.17 348.27L263.67 345.24L261.29 342.12L259.03 338.9L256.89 335.6L254.87 332.21L252.99 328.74L251.23 325.18L249.61 321.56L248.13 317.86L246.79 314.08L245.6 310.25L244.56 306.35L243.66 302.39L242.92 298.37L242.34 294.3L241.93 290.18L241.67 286.02L241.59 281.81L241.67 277.6L241.93 273.43L242.34 269.31L242.92 265.24L243.66 261.22L244.56 257.26L245.6 253.36L246.79 249.53L248.13 245.76L249.61 242.05L251.23 238.43L252.99 234.87L254.87 231.4L256.89 228.01L259.03 224.71L261.29 221.49L263.67 218.37L266.17 215.35L268.78 212.42L271.5 209.59L274.32 206.88L277.25 204.27L280.28 201.77L283.4 199.39L286.61 197.12L289.92 194.98L293.31 192.97L296.78 191.08L300.33 189.33L303.96 187.71L307.66 186.23L311.43 184.89L315.27 183.7L319.17 182.65L323.13 181.76L327.15 181.02L331.22 180.44L335.33 180.02L339.5 179.77L343.71 179.68L347.92 179.77L352.09 180.02Z" id="d7lat6Suj"></path></defs><g><g><g><use xlink:href="#d7lat6Suj" opacity="1" fill="#ffffff" fill-opacity="1"></use></g></g></g></svg>