<?xml version="1.0" encoding="UTF-8" standalone="no"?>
<!DOCTYPE svg PUBLIC "-//W3C//DTD SVG 1.1//EN" "http://www.w3.org/Graphics/SVG/1.1/DTD/svg11.dtd">
<svg version="1.1" xmlns="http://www.w3.org/2000/svg" xmlns:xlink="http://www.w3.org/1999/xlink" preserveAspectRatio="xMidYMid meet" viewBox="0 0 640 640" width="640" height="640"><defs><path d="M367.83 470.55L368.58 470.57L369.32 470.62L370.05 470.72L370.76 470.85L371.45 471.01L372.13 471.21L372.79 471.45L373.43 471.71L374.06 472.01L374.66 472.33L375.24 472.68L375.81 473.07L376.35 473.47L376.87 473.9L377.36 474.36L377.83 474.84L378.28 475.34L378.71 475.86L379.1 476.4L379.47 476.96L379.82 477.54L380.13 478.13L380.42 478.74L380.67 479.36L380.9 479.99L381.1 480.64L381.26 481.29L381.39 481.95L381.49 482.63L381.56 483.31L381.59 483.99L381.58 484.68L381.54 485.37L381.47 486.07L381.35 486.77L381.2 487.46L381.01 488.16L380.78 488.85L380.51 489.55L380.2 490.23L330.35 593.03L330.05 593.62L329.71 594.17L329.36 594.7L328.97 595.2L328.57 595.67L328.14 596.1L327.7 596.51L327.23 596.89L326.75 597.24L326.25 597.55L325.74 597.84L325.22 598.1L324.68 598.32L324.14 598.52L323.58 598.69L323.02 598.83L322.46 598.93L321.89 599.01L321.31 599.06L320.74 599.07L320.16 599.06L319.59 599.02L319.02 598.94L318.45 598.84L317.89 598.7L317.33 598.54L316.79 598.35L316.25 598.12L315.73 597.87L315.21 597.58L314.71 597.27L314.23 596.93L313.76 596.55L313.32 596.15L312.89 595.71L312.48 595.25L312.09 594.75L311.73 594.23L311.4 593.67L311.09 593.09L260.64 490.58L260.33 489.9L260.05 489.21L259.82 488.51L259.62 487.82L259.47 487.12L259.35 486.43L259.27 485.73L259.23 485.04L259.22 484.35L259.24 483.66L259.31 482.98L259.4 482.31L259.53 481.64L259.69 480.99L259.88 480.34L260.11 479.71L260.36 479.09L260.64 478.48L260.95 477.88L261.29 477.3L261.66 476.74L262.05 476.2L262.47 475.68L262.92 475.17L263.39 474.69L263.88 474.23L264.4 473.8L264.94 473.39L265.5 473L266.08 472.65L266.68 472.32L267.3 472.02L267.94 471.75L268.6 471.51L269.28 471.31L269.97 471.14L270.68 471.01L271.4 470.91L272.14 470.85L272.9 470.83L294.84 470.76L294.6 387.91L345.53 387.91L345.77 470.61L367.83 470.55ZM483.21 258.02L483.8 258.09L484.4 258.18L484.99 258.31L485.58 258.47L486.17 258.67L486.76 258.9L487.34 259.16L593.1 310.45L593.69 310.76L594.25 311.09L594.78 311.45L595.27 311.83L595.74 312.23L596.18 312.66L596.58 313.11L596.96 313.57L597.31 314.05L597.63 314.55L597.91 315.06L598.17 315.58L598.4 316.12L598.6 316.66L598.76 317.22L598.9 317.78L599.01 318.35L599.08 318.92L599.13 319.49L599.15 320.06L599.13 320.64L599.09 321.21L599.02 321.79L598.91 322.35L598.78 322.91L598.62 323.47L598.42 324.02L598.2 324.55L597.94 325.08L597.66 325.59L597.34 326.09L597 326.57L596.63 327.04L596.22 327.49L595.79 327.92L595.32 328.32L594.83 328.71L594.3 329.07L593.75 329.41L593.16 329.71L486.34 382.28L485.81 382.53L485.27 382.74L484.73 382.92L484.19 383.08L483.64 383.2L483.1 383.29L482.56 383.35L482.01 383.39L481.47 383.39L480.94 383.37L480.41 383.32L479.88 383.25L479.36 383.15L478.85 383.03L478.35 382.87L477.85 382.7L477.37 382.5L476.89 382.28L476.43 382.04L475.97 381.77L475.54 381.49L475.11 381.18L474.7 380.85L474.31 380.5L473.93 380.14L473.58 379.75L473.24 379.35L472.91 378.93L472.61 378.49L472.34 378.04L472.08 377.56L471.85 377.08L471.64 376.58L471.45 376.06L471.29 375.54L471.16 374.99L471.05 374.44L470.98 373.88L470.93 373.3L470.91 372.71L470.84 345.96L385.41 346.21L385.41 295.28L470.69 295.03L470.61 269.67L470.63 269.03L470.68 268.41L470.76 267.79L470.87 267.19L471.01 266.6L471.18 266.02L471.38 265.46L471.6 264.91L471.85 264.39L472.13 263.87L472.43 263.38L472.75 262.9L473.1 262.44L473.47 262L473.85 261.57L474.26 261.17L474.69 260.79L475.13 260.43L475.59 260.1L476.06 259.78L476.55 259.49L477.06 259.22L477.57 258.98L478.1 258.76L478.64 258.57L479.18 258.4L479.74 258.26L480.31 258.15L480.88 258.07L481.45 258.01L482.04 257.98L482.62 257.99L483.21 258.02ZM156.94 259.38L157.62 259.48L158.28 259.6L158.94 259.76L159.58 259.96L160.22 260.18L160.84 260.43L161.45 260.72L162.04 261.03L162.62 261.37L163.18 261.73L163.73 262.13L164.25 262.55L164.75 262.99L165.23 263.46L165.69 263.96L166.13 264.47L166.54 265.01L166.92 265.57L167.28 266.15L167.61 266.76L167.91 267.38L168.18 268.02L168.41 268.68L168.62 269.35L168.79 270.05L168.92 270.75L169.02 271.48L169.08 272.22L169.1 272.97L169.16 295.03L249.59 294.8L249.59 345.73L169.31 345.96L169.38 367.9L169.36 368.66L169.3 369.4L169.21 370.12L169.08 370.83L168.91 371.53L168.71 372.2L168.48 372.86L168.22 373.51L167.92 374.13L167.6 374.73L167.24 375.32L166.86 375.88L166.45 376.42L166.02 376.94L165.57 377.44L165.09 377.91L164.59 378.36L164.06 378.78L163.52 379.18L162.96 379.55L162.39 379.89L161.8 380.2L161.19 380.49L160.57 380.75L159.94 380.97L159.29 381.17L158.64 381.34L157.97 381.47L157.3 381.57L156.62 381.63L155.93 381.66L155.24 381.66L154.55 381.62L153.86 381.54L153.16 381.43L152.46 381.28L151.76 381.09L151.07 380.86L150.38 380.59L149.69 380.27L46.9 330.43L46.31 330.12L45.75 329.79L45.22 329.43L44.73 329.05L44.26 328.64L43.82 328.22L43.42 327.77L43.04 327.31L42.69 326.82L42.37 326.33L42.09 325.82L41.83 325.29L41.6 324.76L41.4 324.21L41.24 323.66L41.1 323.1L40.99 322.53L40.92 321.96L40.87 321.39L40.85 320.81L40.87 320.24L40.91 319.66L40.98 319.09L41.09 318.52L41.22 317.96L41.38 317.41L41.58 316.86L41.8 316.32L42.06 315.8L42.34 315.29L42.66 314.79L43 314.3L43.37 313.84L43.78 313.39L44.21 312.96L44.68 312.55L45.17 312.17L45.7 311.81L46.25 311.47L46.84 311.16L149.35 260.72L150.03 260.4L150.72 260.13L151.41 259.89L152.11 259.7L152.8 259.54L153.5 259.42L154.2 259.34L154.89 259.3L155.58 259.29L156.26 259.32L156.94 259.38ZM320.82 40.97L321.39 41.05L321.95 41.15L322.52 41.28L323.07 41.45L323.62 41.64L324.15 41.87L324.68 42.12L325.19 42.4L325.69 42.72L326.17 43.06L326.64 43.44L327.09 43.84L327.52 44.28L327.92 44.74L328.31 45.24L328.67 45.76L329.01 46.32L329.32 46.9L379.76 149.41L380.08 150.09L380.35 150.78L380.58 151.48L380.78 152.17L380.94 152.87L381.05 153.56L381.13 154.26L381.18 154.95L381.19 155.64L381.16 156.33L381.1 157.01L381 157.68L380.87 158.35L380.71 159L380.52 159.65L380.3 160.28L380.05 160.9L379.76 161.51L379.45 162.11L379.11 162.68L378.74 163.25L378.35 163.79L377.93 164.31L377.49 164.82L377.02 165.3L376.52 165.76L376.01 166.19L375.47 166.6L374.91 166.99L374.33 167.34L373.72 167.67L373.1 167.97L372.46 168.24L371.8 168.48L371.13 168.68L370.43 168.85L369.72 168.98L369 169.08L368.26 169.14L367.51 169.16L345.45 169.23L345.69 252.09L294.76 252.09L294.52 169.38L272.57 169.44L271.82 169.42L271.08 169.37L270.36 169.27L269.65 169.14L268.95 168.98L268.27 168.78L267.61 168.54L266.97 168.28L266.35 167.98L265.74 167.66L265.16 167.31L264.6 166.92L264.06 166.52L263.54 166.08L263.04 165.63L262.57 165.15L262.12 164.65L261.7 164.13L261.3 163.59L260.93 163.03L260.59 162.45L260.27 161.86L259.99 161.25L259.73 160.63L259.5 160L259.31 159.35L259.14 158.7L259.01 158.03L258.91 157.36L258.85 156.68L258.82 156L258.82 155.31L258.86 154.61L258.94 153.92L259.05 153.22L259.2 152.52L259.39 151.83L259.62 151.13L259.89 150.44L260.2 149.76L310.05 46.96L310.36 46.37L310.69 45.82L311.05 45.29L311.43 44.79L311.84 44.32L312.26 43.89L312.71 43.48L313.17 43.1L313.65 42.75L314.15 42.44L314.66 42.15L315.19 41.89L315.72 41.67L316.27 41.47L316.82 41.3L317.38 41.16L317.95 41.06L318.52 40.98L319.09 40.93L319.67 40.92L320.24 40.93L320.82 40.97Z" id="a4dfU7MtFO"></path></defs><g><g><g><use xlink:href="#a4dfU7MtFO" opacity="1" fill="#ffffff" fill-opacity="1"></use></g></g></g></svg>