<?xml version="1.0" encoding="UTF-8" standalone="no"?>
<!DOCTYPE svg PUBLIC "-//W3C//DTD SVG 1.1//EN" "http://www.w3.org/Graphics/SVG/1.1/DTD/svg11.dtd">
<svg version="1.1" xmlns="http://www.w3.org/2000/svg" xmlns:xlink="http://www.w3.org/1999/xlink" preserveAspectRatio="xMidYMid meet" viewBox="0 0 640 640" width="640" height="640"><defs><path d="M120 331.85C120 320.73 120 319.27 120 308.15C120 290.54 134.29 276.25 151.9 276.25C168.49 276.25 209.94 276.25 276.26 276.25C363.77 276.27 276.26 276.25 363.75 276.25C430.07 276.25 471.52 276.25 488.11 276.25C505.71 276.25 520 290.54 520 308.15C520 319.27 520 320.73 520 331.85C520 349.48 505.71 363.75 488.11 363.75C471.52 363.75 430.07 363.75 363.75 363.75C276.22 363.75 363.78 363.75 276.26 363.75C209.94 363.75 168.49 363.75 151.9 363.75C134.29 363.75 120 349.48 120 331.85Z" id="b2MOp32nfh"></path></defs><g><g><g><use xlink:href="#b2MOp32nfh" opacity="1" fill="#ffffff" fill-opacity="1"></use><g><use xlink:href="#b2MOp32nfh" opacity="1" fill-opacity="0" stroke="#000000" stroke-width="1" stroke-opacity="0"></use></g></g></g></g></svg>