<?xml version="1.0" encoding="UTF-8" standalone="no"?>
<!DOCTYPE svg PUBLIC "-//W3C//DTD SVG 1.1//EN" "http://www.w3.org/Graphics/SVG/1.1/DTD/svg11.dtd">
<svg version="1.1" xmlns="http://www.w3.org/2000/svg" xmlns:xlink="http://www.w3.org/1999/xlink" preserveAspectRatio="xMidYMid meet" viewBox="0 0 640 640" width="640" height="640"><defs><path d="M90 319.99C90 193.05 193.06 90 320 90C446.94 90 550 193.05 550 319.99C550 446.93 446.94 549.99 320 549.99C193.06 549.99 90 446.93 90 319.99Z" id="c1UVwyI1qu"></path><path d="M90 320C90 193.06 193.06 90 320 90C446.94 90 550 193.06 550 320C550 446.94 446.94 550 320 550C193.06 550 90 446.94 90 320Z" id="iz7Pg80f"></path><path d="M90 320C90 193.06 193.06 90 320 90C446.94 90 550 193.06 550 320C550 446.94 446.94 550 320 550C193.06 550 90 446.94 90 320Z" id="auNFHHBrw"></path><path d="M214.6 349.42C203.56 349.42 194.6 340.47 194.6 329.42C194.6 322.45 194.6 321.53 194.6 314.56C194.6 303.52 203.56 294.56 214.6 294.56C225 294.56 250.99 294.56 292.57 294.56C347.44 294.57 292.57 294.56 347.43 294.56C389.01 294.56 415 294.56 425.4 294.56C436.44 294.56 445.4 303.52 445.4 314.56C445.4 321.53 445.4 322.45 445.4 329.42C445.4 340.47 436.44 349.42 425.4 349.42C415 349.42 389.01 349.42 347.43 349.42C292.55 349.42 347.45 349.42 292.57 349.42C250.99 349.42 225 349.42 214.6 349.42Z" id="dP3mO621t"></path><path d="M214.6 349.42C203.56 349.42 194.6 340.47 194.6 329.42C194.6 322.45 194.6 321.53 194.6 314.56C194.6 303.52 203.56 294.56 214.6 294.56C225 294.56 250.99 294.56 292.57 294.56C347.44 294.57 292.57 294.56 347.43 294.56C389.01 294.56 415 294.56 425.4 294.56C436.44 294.56 445.4 303.52 445.4 314.56C445.4 321.53 445.4 322.45 445.4 329.42C445.4 340.47 436.44 349.42 425.4 349.42C415 349.42 389.01 349.42 347.43 349.42C292.55 349.42 347.45 349.42 292.57 349.42C250.99 349.42 225 349.42 214.6 349.42Z" id="j70hNKrzdF"></path></defs><g><g><g><g><use xlink:href="#c1UVwyI1qu" opacity="1" fill="#ff0000" fill-opacity="1"></use></g><g><use xlink:href="#iz7Pg80f" opacity="1" fill="#ff0000" fill-opacity="1"></use><g><use xlink:href="#iz7Pg80f" opacity="1" fill-opacity="0" stroke="#000000" stroke-width="1" stroke-opacity="0"></use></g></g><g><use xlink:href="#auNFHHBrw" opacity="1" fill="#ff3366" fill-opacity="1"></use><g><use xlink:href="#auNFHHBrw" opacity="1" fill-opacity="0" stroke="#ffffff" stroke-width="50" stroke-opacity="1"></use></g></g><g><use xlink:href="#dP3mO621t" opacity="1" fill="#ffffff" fill-opacity="1"></use><g><use xlink:href="#dP3mO621t" opacity="1" fill-opacity="0" stroke="#000000" stroke-width="1" stroke-opacity="0"></use></g></g><g><use xlink:href="#j70hNKrzdF" opacity="1" fill="#000000" fill-opacity="0"></use><g><use xlink:href="#j70hNKrzdF" opacity="1" fill-opacity="0" stroke="#000000" stroke-width="1" stroke-opacity="0"></use></g></g></g></g></g></svg>