<?xml version="1.0" encoding="UTF-8" standalone="no"?>
<!DOCTYPE svg PUBLIC "-//W3C//DTD SVG 1.1//EN" "http://www.w3.org/Graphics/SVG/1.1/DTD/svg11.dtd">
<svg version="1.1" xmlns="http://www.w3.org/2000/svg" xmlns:xlink="http://www.w3.org/1999/xlink" preserveAspectRatio="xMidYMid meet" viewBox="0 0 640 640" width="640" height="640"><defs><path d="M517.75 378.14C532.37 378.14 539.69 395.82 529.35 406.16C487.46 448.05 389.8 545.71 347.91 587.6C332.44 603.07 307.36 603.07 291.88 587.6C249.99 545.71 152.33 448.05 110.44 406.16C100.1 395.82 107.43 378.14 122.05 378.14C209.11 378.14 430.68 378.14 517.75 378.14Z" id="b1CeD6d8Hq"></path><path d="M517.85 260.86C532.47 260.86 539.79 243.18 529.45 232.84C487.56 190.95 389.9 93.29 348.01 51.4C332.54 35.93 307.46 35.93 291.99 51.4C250.1 93.29 152.44 190.95 110.55 232.84C100.21 243.18 107.53 260.86 122.15 260.86C209.21 260.86 430.79 260.86 517.85 260.86Z" id="c7gzIoxRq"></path></defs><g><g><g><use xlink:href="#b1CeD6d8Hq" opacity="1" fill="#ffffff" fill-opacity="1"></use></g><g><use xlink:href="#c7gzIoxRq" opacity="1" fill="#ffffff" fill-opacity="1"></use></g></g></g></svg>