<?xml version="1.0" encoding="UTF-8" standalone="no"?>
<!DOCTYPE svg PUBLIC "-//W3C//DTD SVG 1.1//EN" "http://www.w3.org/Graphics/SVG/1.1/DTD/svg11.dtd">
<svg version="1.1" xmlns="http://www.w3.org/2000/svg" xmlns:xlink="http://www.w3.org/1999/xlink" preserveAspectRatio="xMidYMid meet" viewBox="0 0 640 640" width="640" height="640"><defs><path d="M228.99 377.78L292.6 377.78L292.6 503.8L163.36 503.8L158.26 503.71L153.21 503.45L148.22 503.01L143.29 502.4L138.43 501.63L133.63 500.69L128.91 499.59L124.26 498.34L119.69 496.93L115.21 495.38L110.81 493.68L106.51 491.84L102.3 489.86L98.2 487.74L94.19 485.5L90.3 483.12L86.52 480.62L82.85 478L79.31 475.26L75.88 472.41L72.59 469.44L69.43 466.37L66.4 463.19L63.52 459.92L60.78 456.54L58.18 453.08L55.74 449.52L53.46 445.87L51.33 442.14L49.37 438.34L47.58 434.45L45.95 430.49L44.51 426.47L43.24 422.37L42.16 418.22L41.27 414L40.56 409.73L40.06 405.41L39.75 401.03L39.65 396.61L39.72 392.76L39.96 388.94L40.34 385.16L40.88 381.41L41.56 377.71L42.39 374.05L43.36 370.43L44.47 366.86L45.72 363.35L47.1 359.88L48.61 356.48L50.25 353.12L52.02 349.83L53.91 346.6L55.92 343.43L58.05 340.33L60.3 337.3L62.66 334.34L65.13 331.45L67.7 328.64L70.39 325.9L73.17 323.25L76.05 320.67L79.04 318.19L82.11 315.78L85.28 313.47L88.54 311.25L91.88 309.12L95.31 307.09L98.82 305.16L102.41 303.33L106.07 301.6L109.81 299.97L113.62 298.45L117.49 297.05L121.43 295.75L125.44 294.57L129.5 293.5L133.63 292.56L137.8 291.73L138.25 287.56L138.83 283.43L139.55 279.36L140.39 275.34L141.37 271.38L142.47 267.49L143.69 263.65L145.03 259.88L146.5 256.18L148.07 252.56L149.76 249L151.56 245.53L153.47 242.14L155.48 238.83L157.59 235.62L159.8 232.49L162.11 229.45L164.52 226.51L167.01 223.67L169.6 220.93L172.27 218.3L175.02 215.77L177.86 213.35L180.77 211.05L183.76 208.87L186.83 206.8L189.96 204.86L193.16 203.04L196.43 201.35L199.76 199.8L203.15 198.37L206.6 197.09L210.1 195.94L213.66 194.94L217.27 194.08L220.92 193.38L224.62 192.82L228.35 192.42L232.13 192.18L235.95 192.1L236.79 192.1L237.63 192.11L238.47 192.13L239.3 192.16L240.14 192.2L240.97 192.24L241.8 192.29L242.63 192.35L243.46 192.42L244.28 192.49L245.1 192.57L245.93 192.66L246.74 192.76L247.56 192.86L248.38 192.97L249.19 193.09L250 193.22L250.81 193.35L251.62 193.49L252.42 193.64L253.22 193.79L254.02 193.96L254.82 194.13L255.61 194.3L256.41 194.49L257.2 194.68L257.99 194.88L258.77 195.08L259.56 195.3L260.34 195.52L261.12 195.74L261.89 195.98L262.67 196.22L263.44 196.46L264.21 196.72L264.97 196.98L265.74 197.24L266.5 197.52L267.26 197.8L268.01 198.09L269.83 195.3L271.71 192.57L273.64 189.88L275.62 187.25L277.66 184.67L279.75 182.15L281.89 179.68L284.08 177.26L286.32 174.91L288.61 172.61L290.95 170.37L293.33 168.2L295.76 166.08L298.23 164.03L300.75 162.04L303.31 160.12L305.91 158.26L308.55 156.47L311.23 154.75L313.96 153.09L316.71 151.51L319.51 150L322.34 148.56L325.21 147.19L328.11 145.9L331.04 144.68L334.01 143.55L337.01 142.48L340.04 141.5L343.1 140.6L346.18 139.78L349.3 139.04L352.44 138.38L355.6 137.81L358.79 137.32L362.01 136.92L365.25 136.6L368.51 136.38L371.79 136.24L375.09 136.2L380.51 136.32L385.87 136.69L391.18 137.29L396.42 138.13L401.59 139.2L406.69 140.49L411.71 142.01L416.66 143.73L421.51 145.67L426.28 147.82L430.95 150.16L435.53 152.7L440 155.43L444.37 158.35L448.62 161.45L452.76 164.72L456.78 168.17L460.68 171.79L464.45 175.56L468.09 179.5L471.59 183.59L474.95 187.83L478.17 192.21L481.23 196.73L484.15 201.38L486.91 206.16L489.5 211.07L491.93 216.1L494.19 221.24L496.28 226.49L498.18 231.85L499.91 237.31L501.44 242.87L502.79 248.51L503.94 254.25L504.89 260.06L505.64 265.95L506.18 271.92L506.5 277.95L506.61 284.04L506.61 284.27L506.61 284.5L506.61 284.74L506.61 284.97L506.61 285.2L506.61 285.43L506.61 285.66L506.6 285.89L506.6 286.12L506.6 286.35L506.6 286.58L506.59 286.81L506.59 287.04L506.58 287.27L506.58 287.5L506.57 287.73L506.57 287.96L506.56 288.19L506.56 288.42L506.55 288.65L506.54 288.88L506.54 289.11L506.53 289.34L506.52 289.57L506.51 289.8L506.51 290.02L506.5 290.25L506.49 290.48L506.48 290.71L506.47 290.94L506.46 291.17L506.45 291.39L506.44 291.62L506.43 291.85L506.41 292.08L506.4 292.3L506.39 292.53L506.38 292.76L506.36 292.98L506.35 293.21L510.26 294.2L514.11 295.29L517.91 296.49L521.65 297.79L525.33 299.19L528.94 300.7L532.49 302.3L535.97 303.99L539.37 305.78L542.71 307.66L545.97 309.63L549.15 311.69L552.26 313.83L555.28 316.05L558.21 318.36L561.06 320.75L563.82 323.21L566.49 325.75L569.07 328.36L571.55 331.05L573.93 333.8L576.21 336.62L578.38 339.5L580.46 342.45L582.42 345.46L584.27 348.53L586.02 351.66L587.64 354.84L589.15 358.08L590.55 361.36L591.81 364.7L592.96 368.08L593.98 371.51L594.87 374.99L595.63 378.5L596.26 382.05L596.75 385.64L597.11 389.27L597.32 392.92L597.39 396.61L597.29 401.03L596.98 405.41L596.48 409.73L595.77 414L594.88 418.22L593.8 422.37L592.53 426.47L591.09 430.49L589.46 434.45L587.67 438.34L585.71 442.14L583.58 445.87L581.3 449.52L578.86 453.08L576.27 456.54L573.52 459.92L570.64 463.19L567.61 466.37L564.45 469.44L561.16 472.41L557.74 475.26L554.19 478L550.53 480.62L546.74 483.12L542.85 485.5L538.85 487.74L534.74 489.86L530.53 491.84L526.23 493.68L521.84 495.38L517.35 496.93L512.78 498.34L508.14 499.59L503.41 500.69L498.61 501.63L493.75 502.4L488.82 503.01L483.83 503.45L478.78 503.71L473.68 503.8L366.23 503.8L366.23 377.78L429.68 377.78L329.33 258.96L329.33 258.96L228.99 377.78Z" id="c8MsHyZHMz"></path></defs><g><g><g><use xlink:href="#c8MsHyZHMz" opacity="1" fill="#0088dd" fill-opacity="1"></use></g></g></g></svg>